
<svg width="85px" height="39px" viewBox="65 16 85 39" version="1.1" xmlns="http://www.w3.org/2000/svg" xmlns:xlink="http://www.w3.org/1999/xlink">
    <!-- Generator: Sketch 3.8.3 (29802) - http://www.bohemiancoding.com/sketch -->
    <desc>Created with Sketch.</desc>
    <defs></defs>
    <g id="Group" stroke="none" stroke-width="1" fill="none" fill-rule="evenodd" transform="translate(65.000000, 16.000000)">
        <g id="Group-60" transform="translate(0.264100, 0.470588)" fill="#FFFFFF">
            <path d="M6.56841881,8.22339928 L4.7785732,13.1659767 L8.34704004,13.1659767 L6.56841881,8.22339928 Z M5.26491379,4.40623619 L7.84017065,4.40623619 L12.5777453,17.6846906 C12.5777453,17.6846906 12.0674791,17.7274117 11.4182373,17.8973397 C10.6978093,18.0859183 10.1829647,18.3636055 10.1829647,18.3636055 L9.28767266,15.8377996 L3.84502967,15.8377996 L3.04544025,17.9955345 L0.406677025,17.9955345 L5.26491379,4.40623619 Z" id="Fill-2"></path>
            <path d="M12.2684398,4.40626807 L14.7039827,4.40626807 L20.411137,13.8804713 L20.411137,4.40626807 L22.9503577,4.40626807 L22.9503577,18.0030585 L20.0274405,18.0036961 L14.8076605,9.35856932 L14.8076605,17.7255307 C14.8076605,17.7255307 14.1238594,17.635625 13.5624927,17.6273359 C13.024904,17.6195249 12.2684398,17.7255307 12.2684398,17.7255307 L12.2684398,4.40626807 Z" id="Fill-4"></path>
            <path d="M22.8253388,4.40626807 L30.197246,4.40626807 L30.197246,7.10758127 L27.7668723,7.10758127 L27.7668723,19.6801809 C27.7668723,19.6801809 27.3020943,19.1171549 26.6435481,18.7398382 C25.8250545,18.2710219 25.1922062,18.2145917 25.1922062,18.2145917 L25.1922062,7.10758127 L22.8253388,7.10758127 L22.8253388,4.40626807 Z" id="Fill-6"></path>
            <polygon id="Fill-8" points="30.0717693 4.40626807 32.6474692 4.40626807 32.6474692 9.83822537 37.099856 9.83822537 37.099856 4.40626807 39.6661038 4.40626807 39.6661038 17.9955663 37.099856 17.9955663 37.099856 12.49076 32.6474692 12.49076 32.6474692 17.9955663 30.0717693 17.9955663"></polygon>
            <path d="M40.8644837,4.40626807 L48.1465958,4.40626807 L48.1465958,7.08797419 L43.3852432,7.08797419 L43.3852432,9.6914114 L48.1465958,9.6914114 L48.1465958,12.3243389 L43.3852432,12.3243389 L43.3852432,16.1120117 L48.1465958,16.1120117 L48.1465958,18.0936017 C48.1465958,18.0936017 47.1656441,17.683766 45.7413293,17.635625 C44.4582054,17.5921069 43.266058,17.9847267 43.266058,17.9847267 L40.8644837,17.9847267 L40.8644837,4.40626807 Z" id="Fill-10"></path>
            <path d="M49.9496744,4.40626807 L52.4236165,4.40626807 L55.5157856,14.4479607 L58.6360156,4.40626807 L61.1081854,4.40626807 L63.5862628,20.1548953 L62.9188552,21.9984387 C62.9188552,21.9984387 62.478446,21.1789267 62.1033154,20.6948072 C61.7168127,20.1958629 61.0176519,19.5660454 61.0176519,19.5660454 L59.4602692,9.71101848 L56.8588713,18.069053 C56.8588713,18.069053 56.2072665,18.0036961 55.5630461,17.9955663 C54.9188258,17.9872772 54.1535002,18.0118259 54.1535002,18.0118259 L51.5804587,9.71101848 L50.0657581,19.1407471 C50.0657581,19.1407471 49.4111995,18.6738437 48.9546921,18.4454133 C48.4317246,18.1836667 47.7799721,17.9627285 47.7799721,17.9627285 L49.9496744,4.40626807 Z" id="Fill-12"></path>
            <polygon id="Fill-14" points="0.120573476 19.3052234 9.16506107 19.3052234 9.16506107 21.9770463 2.64133302 21.9770463 2.64133302 24.5903668 6.73985645 24.5903668 6.73985645 27.2232943 2.64133302 27.2232943 2.64133302 33.7027158 0.120573476 33.7027158"></polygon>
            <path d="M13.4113771,21.6252029 C12.1769906,21.6252029 11.1387354,22.08844 10.2976454,23.0147548 C9.45685065,23.9410696 9.03623177,25.1190883 9.03623177,26.5480138 C9.03623177,28.1398534 9.56569761,29.3991697 10.624777,30.3254845 C11.4475536,31.0504681 12.3920261,31.4123223 13.4568654,31.4123223 C14.6608279,31.4123223 15.6868249,30.9425495 16.5336748,30.0030039 C17.3811155,29.0632989 17.8051313,27.9052061 17.8051313,26.5280879 C17.8051313,25.1578242 17.3777187,23.9984562 16.5248135,23.0491868 C15.6716129,22.0997579 14.6333577,21.6252029 13.4113771,21.6252029 M13.4388473,18.9433374 C15.3258724,18.9433374 16.9486815,19.6805953 18.3066839,21.1549519 C19.6645385,22.629946 20.3437612,24.4272614 20.3437612,26.5480138 C20.3437612,28.6486809 19.6741383,30.4267081 18.333711,31.8817763 C16.9941698,33.3373228 15.3685546,34.0646975 13.4568654,34.0646975 C11.4541996,34.0646975 9.79077597,33.3172375 8.46644677,31.8234333 C7.14108375,30.3294697 6.47899299,28.5546307 6.47899299,26.4989164 C6.47899299,25.122117 6.78781114,23.856265 7.40441362,22.7013604 C8.02160685,21.5466152 8.86993371,20.6314588 9.94983726,19.9560508 C11.0294454,19.2808022 12.1922026,18.9433374 13.4388473,18.9433374" id="Fill-16"></path>
            <path d="M22.4591434,24.9329008 L23.2544498,24.9329008 C24.0620145,24.9329008 24.6180644,24.8184465 24.9221565,24.5893784 C25.2262486,24.3603104 25.3788115,23.9804432 25.3788115,23.4504145 C25.3788115,23.1363825 25.30349,22.8629992 25.152847,22.6304242 C25.0017609,22.3983275 24.8000175,22.2311094 24.5470258,22.1292482 C24.2941819,22.0280247 23.829847,21.9770144 23.1549073,21.9770144 L22.4591434,21.9770144 L22.4591434,24.9329008 Z M19.9199227,19.3051915 L22.6097864,19.3051915 C24.0828386,19.3051915 25.1324659,19.4470639 25.7571913,19.7311274 C26.3820644,20.0147127 26.8849461,20.4860795 27.2653936,21.145228 C27.6456933,21.8042171 27.8360647,22.5843556 27.8360647,23.484687 C27.8360647,24.4309277 27.6257552,25.2219059 27.2061702,25.8584186 C26.7855513,26.4942936 26.152703,26.9753843 25.3067392,27.3015313 L28.4661069,33.7028433 L25.6904358,33.7028433 L22.6913108,27.6047237 L22.4591434,27.6047237 L22.4591434,33.7028433 L19.9199227,33.7028433 L19.9199227,19.3051915 Z" id="Fill-18"></path>
            <polygon id="Fill-20" points="30.071341 19.3052234 41.323487 19.3052234 41.323487 22.0065366 36.9535108 22.0065366 36.9535108 33.7027158 34.3782539 33.7027158 34.3782539 22.0065366 30.071341 22.0065366"></polygon>
            <path d="M45.5380351,21.6252029 C44.3037963,21.6252029 43.2653934,22.08844 42.4243033,23.0147548 C41.5835086,23.9410696 41.1628897,25.1190883 41.1628897,26.5480138 C41.1628897,28.1398534 41.6925032,29.3991697 42.7515826,30.3254845 C43.5743592,31.0504681 44.5188318,31.4123223 45.583671,31.4123223 C46.7876335,31.4123223 47.8134828,30.9425495 48.6604805,30.0030039 C49.5077735,29.0632989 49.9317892,27.9052061 49.9317892,26.5280879 C49.9317892,25.1578242 49.5043766,23.9984562 48.6514714,23.0491868 C47.7984185,22.0997579 46.7600156,21.6252029 45.5380351,21.6252029 M45.5656529,18.9433374 C47.4526781,18.9433374 49.0753395,19.6805953 50.4333418,21.1549519 C51.7913442,22.629946 52.4704192,24.4272614 52.4704192,26.5480138 C52.4704192,28.6486809 51.8007963,30.4267081 50.4603689,31.8817763 C49.1208277,33.3373228 47.4952125,34.0646975 45.583671,34.0646975 C43.5810053,34.0646975 41.9174339,33.3172375 40.5932524,31.8234333 C39.2677417,30.3294697 38.6056509,28.5546307 38.6056509,26.4989164 C38.6056509,25.122117 38.9144691,23.856265 39.5310716,22.7013604 C40.1484125,21.5466152 40.9967393,20.6314588 42.0764952,19.9560508 C43.1561034,19.2808022 44.3188606,18.9433374 45.5656529,18.9433374" id="Fill-22"></path>
            <path d="M59.6559131,29.2401611 C59.6872232,29.1824557 59.6776234,29.210352 59.7076043,29.1497773 C60.0396096,28.4697464 60.2063508,27.6344531 60.2063508,26.6410279 C60.2063508,25.1127917 59.810396,23.9268027 59.0183387,23.084336 C58.3051475,22.3266739 57.1598176,21.9479226 55.581463,21.9479226 L54.7204348,21.9479226 L54.7204348,31.0304625 L55.8989948,31.0304625 C56.0073987,31.0304625 56.1129965,31.0295061 56.2157882,31.0269556 L55.413245,33.7027636 L55.2528545,33.7027636 L52.1996753,33.7027636 L52.1996753,19.3052712 L55.2073662,19.3052712 C57.1465256,19.3052712 58.5864954,19.564786 59.529048,20.0834968 C60.4711575,20.6018888 61.2474121,21.4453119 61.8573685,22.6134474 C62.4674727,23.7817422 62.7725986,25.1451514 62.7725986,26.7049501 C62.7725986,27.8137861 62.6020175,28.8331947 62.2605601,29.7630165 C61.9189549,30.6925194 61.4482694,31.4645282 60.8470266,32.0780862 C60.2460792,32.6914848 59.5952128,33.1153484 58.8947228,33.3499957 C58.7251756,33.4072228 58.5253521,33.4572767 58.2955477,33.5007948 L59.6559131,29.2401611 Z" id="Fill-24"></path>
            <path d="M66.4803364,23.1221315 L64.6909338,28.0648683 L68.2594007,28.0648683 L66.4803364,23.1221315 Z M65.1768313,19.3052872 L67.7520882,19.3052872 L72.8823685,33.7027796 L70.2434576,33.7027796 L69.2000333,30.7365317 L63.7567995,30.7365317 L62.6721699,33.7027796 L60.0329636,33.7027796 L65.1768313,19.3052872 Z" id="Fill-26"></path>
            <path d="M68.4706849,19.3052234 L71.1970278,19.3052234 L73.6857388,24.4840422 L74.8123121,22.0852837 C74.8123121,22.0852837 75.4946363,22.3205687 76.0998667,22.3798681 C76.7668312,22.445225 77.3829906,22.3577105 77.3829906,22.3577105 L74.9502538,27.4676654 L74.9502538,33.7027158 L72.392572,33.7027158 L72.392572,27.4676654 L68.4706849,19.3052234 Z" id="Fill-28"></path>
            <path d="M56.4957478,36.7992312 L59.3371407,27.6966059 C59.3371407,27.6966059 59.544644,26.8195479 59.3826289,25.8317019 C59.2182508,24.830147 58.9732344,24.5065505 58.9732344,24.5065505 L55.3409658,36.5693661 L55.8259772,37.0273428 L56.4957478,36.7992312 Z" id="Fill-30"></path>
            <path d="M64.5411917,12.9679452 C65.2137684,12.7994519 66.7295028,12.4994477 68.0945943,12.7949885 C68.0945943,12.7949885 66.6329141,12.2810599 64.7633163,12.2408893 L64.5411917,12.9679452 Z" id="Fill-32"></path>
            <path d="M64.7699475,12.1987739 C65.4426719,12.0301212 66.9591448,11.7299576 68.3242362,12.0250202 C68.3242362,12.0250202 66.8573869,11.510454 64.9817339,11.4720368 L64.7699475,12.1987739 Z" id="Fill-34"></path>
            <path d="M64.9963847,11.4303838 C65.6676321,11.2622092 67.1851388,10.9610892 68.5506733,11.2571082 C68.5506733,11.2571082 67.0894362,10.741745 65.2176231,10.703009 L64.9963847,11.4303838 Z" id="Fill-36"></path>
            <path d="M65.2280057,10.6594112 C65.9001393,10.4912367 67.4161691,10.1913919 68.7818513,10.4870921 C68.7818513,10.4874109 67.3176604,9.97204765 65.4454042,9.93315231 L65.2280057,10.6594112 Z" id="Fill-38"></path>
            <path d="M62.8990206,11.4406496 L66.2847958,0.227473972 C66.3221612,0.106483962 66.6035092,0.0991512337 66.9194164,0.209142152 C67.2325175,0.320727142 67.4574482,0.507552296 67.4224459,0.627267049 L63.3840319,14.1889879 L62.8990206,11.4406496 Z" id="Fill-40"></path>
            <path d="M79.8247216,16.1524214 C79.8904433,16.1549719 75.1852126,18.0273681 73.3275776,13.0658212 C72.4058492,10.6037781 70.7351888,9.81566926 70.7351888,9.81566926 C68.3556202,8.45783934 65.7489055,8.92155468 65.7489055,8.92155468 L65.5164427,9.67395632 C69.4065766,9.161303 72.1277505,11.1972508 72.9837571,13.5893142 C73.7718268,15.7924801 75.0251175,16.523043 75.0251175,16.523043 C77.1674973,17.9844875 79.8109865,16.8042372 79.8109865,16.8042372 L79.6934259,17.1664102 C77.6624038,17.8097773 75.8923486,17.4157229 75.8923486,17.4157229 C77.4772015,17.9594606 79.3193291,17.9626488 79.3193291,17.9626488 C77.0556965,18.5734969 75.6625441,18.1856593 75.6625441,18.1856593 C77.1793124,18.7357733 79.1070997,18.7480477 79.1070997,18.7480477 C76.9951439,19.3258985 75.4362843,18.9535235 75.4362843,18.9535235 C76.7871975,19.4644233 78.864594,19.5222881 78.864594,19.5222881 C77.1670542,20.0784596 75.2051506,19.7234599 75.2051506,19.7234599 C76.3958211,20.2518945 78.7508733,20.3139039 78.7508733,20.3139039 C73.6207407,22.2709452 72.0339678,17.3411204 72.0339678,17.3411204 C72.0339678,17.3411204 71.4324296,15.3780216 69.4979963,14.090809 C67.477017,12.7460505 64.4858673,13.164016 64.4858673,13.164016 L64.2940191,13.8510607 C64.2940191,13.8510607 66.9716245,13.3275677 69.2147284,14.6691381 C69.2147284,14.6691381 70.6442123,15.5251544 71.4277036,17.4064773 C71.4277036,17.4064773 73.1556674,23.3614494 79.2283526,20.7878213 L83.3614353,7.14368698 C83.3614353,7.14368698 79.7034688,9.48840643 77.237945,6.89262075 C77.237945,6.89262075 76.7728717,6.39112593 76.399218,5.50769162 C75.8152548,4.12754471 74.6708111,-0.0545012971 68.2039434,0.501670173 L68.0324762,1.16703553 C68.0324762,1.16703553 73.7320984,0.0763719551 75.7425917,5.54037009 C75.7425917,5.54037009 77.2010227,10.230606 82.3828465,8.29444704 L82.2293975,8.79036261 C82.2293975,8.79036261 79.8612009,9.41970195 78.3980438,9.03951595 C78.3980438,9.03951595 80.2694139,9.64111846 81.8254674,9.60828059 C81.8254674,9.60828059 79.5636071,10.1960147 78.1682394,9.80945238 C78.1682394,9.80945238 79.9867367,10.426358 81.6031952,10.3718407 C81.6031952,10.3718407 79.6665465,10.9245052 77.9418318,10.5773165 C77.9418318,10.5773165 79.7745073,11.1900775 81.3810706,11.1464 C81.3810706,11.1464 79.3453224,11.711817 77.7108459,11.3472529 C77.7108459,11.3472529 79.7536831,12.0078361 81.0372501,11.9096413 C81.0372501,11.9096413 77.2276068,13.4474419 75.1564132,10.0118994 C75.1564132,10.0118994 74.6712541,9.01959006 74.5098298,8.57229366 C74.3752849,8.1995998 72.8529045,4.01372802 66.991858,4.65709519 L66.7692903,5.42049592 C66.7692903,5.42049592 72.2461972,4.52606253 74.1660093,9.05242793 C74.1660093,9.05242793 74.7622307,10.5683897 75.0350127,10.9500104 C75.3079423,11.3317905 76.942862,14.0622752 81.0969165,12.5496609 L80.9666547,13.0221436 C80.9666547,13.0221436 78.8609018,13.651483 77.104434,13.271297 C77.104434,13.271297 79.2155036,13.9081285 80.5797089,13.8319319 C80.5797089,13.8319319 78.2697019,14.4171154 76.8746295,14.0412334 C76.8746295,14.0412334 78.7759805,14.6498498 80.3522675,14.6009118 C80.3522675,14.6009118 78.2109216,15.1566051 76.6483697,14.8090975 C76.6483697,14.8090975 78.6167715,15.4188298 80.1099095,15.3697324 C80.1099095,15.3697324 78.1697163,15.9504526 76.417236,15.579034 C76.417236,15.579034 77.707449,16.0731961 79.8247216,16.1524214" id="Fill-42"></path>
            <path d="M65.8144352,8.68177448 C66.4870119,8.51328114 68.0025986,8.21327693 69.3678378,8.50865834 C69.3678378,8.50865834 67.9060099,7.99488916 66.0365598,7.95471857 L65.8144352,8.68177448 Z" id="Fill-44"></path>
            <path d="M66.043191,7.9126032 C66.7157677,7.74379105 68.2323883,7.44378684 69.5974797,7.73869003 C69.5974797,7.73869003 68.1306304,7.22428322 66.2549774,7.18586611 L66.043191,7.9126032 Z" id="Fill-46"></path>
            <path d="M66.2696282,7.14421302 C66.940728,6.9760385 68.4582346,6.67491844 69.8237691,6.97093747 C69.8237691,6.97093747 68.3626797,6.45557423 66.4907189,6.41667889 L66.2696282,7.14421302 Z" id="Fill-48"></path>
            <path d="M66.5012492,6.37325639 C67.1733828,6.20508187 68.6894126,5.90523706 70.0550948,6.20093728 C70.0550948,6.2012561 68.5909039,5.68589285 66.7186477,5.64699751 L66.5012492,6.37325639 Z" id="Fill-50"></path>
            <path d="M67.0572547,4.46099254 C67.7299791,4.2924992 69.2455659,3.99249499 70.6106573,4.2878764 C70.6106573,4.2878764 69.1489771,3.77410722 67.2793793,3.73393663 L67.0572547,4.46099254 Z" id="Fill-52"></path>
            <path d="M67.2859958,3.69182126 C67.9587202,3.52300912 69.4751931,3.2230049 70.8402845,3.5180675 C70.8402845,3.5180675 69.3734352,3.00350129 67.4977821,2.96508417 L67.2859958,3.69182126 Z" id="Fill-54"></path>
            <path d="M67.5124329,2.92343109 C68.1836804,2.75525657 69.7011871,2.4541365 71.0667216,2.75015554 C71.0667216,2.75015554 69.6054845,2.23479229 67.7336714,2.19589695 L67.5124329,2.92343109 Z" id="Fill-56"></path>
            <path d="M67.7440687,2.15245851 C68.4162023,1.98428399 69.9322321,1.68443918 71.2979143,1.9801394 C71.2979143,1.98045822 69.8337234,1.46509497 67.9614672,1.42619963 L67.7440687,2.15245851 Z" id="Fill-58"></path>
        </g>
    </g>
</svg>
