<?xml version="1.0" encoding="utf-8"?>
<!-- Generator: Adobe Illustrator 19.2.0, SVG Export Plug-In . SVG Version: 6.00 Build 0)  -->
<svg version="1.1" id="Layer_1" xmlns="http://www.w3.org/2000/svg" xmlns:xlink="http://www.w3.org/1999/xlink" x="0px" y="0px"
	 viewBox="0 0 40 40" style="enable-background:new 0 0 40 40;" xml:space="preserve">
<style type="text/css">
	.st0{fill:#E4E4DB;}
</style>
<g>
	<path class="st0" d="M40,38.1c0,1-0.8,1.9-1.9,1.9H1.9c-1,0-1.9-0.8-1.9-1.9v-5.4c0-1,0.8-1.9,1.9-1.9h36.2c1,0,1.9,0.8,1.9,1.9
		C40,32.7,40,38.1,40,38.1z"/>
</g>
<g>
	<path class="st0" d="M40,22.7c0,1-0.8,1.9-1.9,1.9H1.9c-1,0-1.9-0.8-1.9-1.9v-5.4c0-1,0.8-1.9,1.9-1.9h36.2c1,0,1.9,0.8,1.9,1.9
		C40,17.3,40,22.7,40,22.7z"/>
</g>
<g>
	<path class="st0" d="M40,7.3c0,1-0.8,1.9-1.9,1.9H1.9C0.8,9.1,0,8.3,0,7.3V1.9C0,0.8,0.8,0,1.9,0h36.2c1,0,1.9,0.8,1.9,1.9
		C40,1.9,40,7.3,40,7.3z"/>
</g>
</svg>
